<svg xmlns="http://www.w3.org/2000/svg" xmlns:xlink="http://www.w3.org/1999/xlink" width="500" zoomAndPan="magnify" viewBox="0 0 375 374.999991" height="500" preserveAspectRatio="xMidYMid meet" version="1.0"><defs><g/><clipPath id="111648293f"><path d="M 92.113281 90.816406 L 279.613281 90.816406 L 279.613281 278 L 92.113281 278 Z M 92.113281 90.816406 " clip-rule="nonzero"/></clipPath></defs><g clip-path="url(#111648293f)"><path fill="#ffffff" d="M 185.699219 277.988281 C 133.996094 277.988281 92.113281 235.816406 92.113281 184.402344 C 92.113281 132.988281 133.996094 90.816406 185.699219 90.816406 C 237.402344 90.816406 279.285156 132.699219 279.285156 184.402344 C 279.285156 236.105469 237.113281 277.988281 185.699219 277.988281 Z M 185.699219 96.59375 C 137.175781 96.59375 97.890625 135.875 97.890625 184.402344 C 97.890625 232.929688 137.175781 272.210938 185.699219 272.210938 C 234.226562 272.210938 273.507812 232.929688 273.507812 184.402344 C 273.507812 135.875 233.9375 96.59375 185.699219 96.59375 Z M 185.699219 96.59375 " fill-opacity="1" fill-rule="nonzero"/></g><path stroke-linecap="butt" transform="matrix(0.75, 0, 0, 0.75, 69.32406, 116.999992)" fill="none" stroke-linejoin="miter" d="M 96.224176 88.890641 L 96.62001 87.937516 L 96.62001 88.067724 C 97.078343 87.171891 97.349176 86.036474 97.437718 84.656266 C 97.52626 83.255224 97.656468 82.109391 97.833551 81.213557 C 98.380427 79.067724 98.937718 76.92189 99.505427 74.781265 C 100.093968 72.614598 100.750218 70.505223 101.474177 68.447931 C 102.80751 64.598973 104.208552 60.729181 105.672094 56.833347 C 107.161677 52.937514 108.802302 49.19793 110.593969 45.614597 C 111.052302 44.713555 111.588761 43.927096 112.203344 43.250013 C 112.838761 42.57293 113.427303 41.828138 113.974178 41.020846 C 114.500219 40.317721 114.937719 39.500013 115.286678 38.557304 C 115.661678 37.619804 116.021053 36.697929 116.370011 35.802096 C 117.005428 34.447929 117.791886 32.807304 118.734595 30.880221 C 119.672095 28.958345 120.854386 27.729179 122.276261 27.208345 C 123.896053 26.484387 125.510637 26.66147 127.130428 27.729179 C 128.75022 28.802095 130.005429 29.963554 130.90647 31.208346 C 131.802304 32.651054 132.25022 33.911471 132.25022 34.984388 C 132.25022 36.052096 131.84397 37.223971 131.036679 38.494804 C 131.474179 38.031263 131.692929 37.890638 131.692929 38.067721 C 131.692929 38.437513 131.307512 39.281263 130.541887 40.593763 C 129.802304 41.88543 129.026262 43.088555 128.213762 44.203138 C 127.40647 45.317722 126.870012 45.833347 126.604387 45.744805 C 126.604387 45.744805 126.870012 45.187513 127.396053 44.07293 C 127.942928 42.932305 128.260637 42.276055 128.34397 42.10418 C 127.078345 44.156263 125.838762 46.244805 124.635637 48.369805 C 123.432512 50.468764 122.34397 52.63543 121.359595 54.864597 C 121.620011 54.515639 121.838761 54.296889 122.015845 54.208347 C 121.838761 54.296889 121.453345 55.041681 120.864803 56.437514 C 120.297095 57.817722 119.692928 59.380222 119.06272 61.130223 C 118.427303 62.880223 117.833553 64.479181 117.286678 65.92189 C 116.765844 67.343765 116.458553 68.187515 116.370011 68.447931 C 114.224178 74.005223 112.390844 79.67189 110.859594 85.442724 C 109.349177 91.218766 108.234594 97.1146 107.510635 103.130225 C 107.422094 103.937517 107.33876 105.02085 107.250219 106.375017 C 107.161677 107.713559 107.33876 108.828142 107.77626 109.723976 C 108.234594 110.598976 109.172094 110.859393 110.593969 110.510434 C 112.125219 110.072934 113.557511 109.067726 114.896053 107.494809 C 116.250219 105.916684 117.422094 104.5521 118.40647 103.390642 C 121.880428 99.281267 125.390845 95.166683 128.93772 91.0521 C 132.479387 86.921891 135.771054 82.656266 138.812721 78.260432 C 138.724179 78.343765 138.385637 78.708349 137.797096 79.343765 C 137.224179 79.95314 136.942929 80.218766 136.942929 80.130224 C 136.677304 79.427099 136.963762 78.541682 137.797096 77.468765 C 138.646054 76.375015 139.260638 75.60939 139.630429 75.17189 C 140.531471 74.104182 141.349179 73.010432 142.093971 71.895848 C 142.859596 70.755223 143.604388 69.60939 144.323138 68.447931 L 156.562722 49.223972 C 157.547097 47.802097 158.510639 46.380222 159.448139 44.958347 C 160.390847 43.51043 161.265847 42.067721 162.073139 40.625013 C 162.708556 39.552096 163.286681 38.635429 163.812722 37.869804 C 164.359598 37.104179 165.343973 36.718763 166.765848 36.718763 C 168.474181 36.718763 170.265848 37.442721 172.146056 38.885429 C 174.026265 40.307305 175.328348 41.869805 176.052307 43.578138 C 176.052307 43.578138 176.052307 43.598971 176.052307 43.645846 C 176.052307 43.687513 176.093973 43.755221 176.182515 43.838555 C 176.182515 44.036471 176.224182 44.13543 176.312723 44.13543 L 176.182515 44.13543 C 176.271057 44.223971 176.312723 44.29168 176.312723 44.333346 C 176.312723 44.375013 176.312723 44.401055 176.312723 44.401055 L 176.442932 44.531263 C 176.906473 46.500013 176.661682 48.51043 175.724182 50.567722 C 174.781473 52.625014 173.677306 54.666681 172.411681 56.703139 C 171.161681 58.713556 170.224181 60.619806 169.588765 62.411473 C 168.974181 64.380223 168.416889 66.307306 167.916889 68.187515 C 167.432514 70.067723 166.833556 71.947932 166.109598 73.82814 C 165.213764 75.885432 164.359598 77.994807 163.552306 80.161474 C 162.739806 82.307307 161.890847 84.447932 160.989806 86.593766 L 150.78668 111.989601 C 149.166888 115.83856 147.66168 119.765643 146.260638 123.765643 C 144.88043 127.74481 143.297096 131.661477 141.500221 135.510436 C 138.463762 142.31252 135.192929 149.229187 131.692929 156.250021 C 128.192928 163.291688 124.067928 169.734396 119.323136 175.572938 C 117.442928 177.890647 115.198136 179.291689 112.599177 179.770855 C 110.015844 180.276064 107.359594 180.078147 104.625219 179.182314 C 101.890843 178.28648 99.416885 176.895855 97.208551 175.015647 C 95.021051 173.135438 93.390843 171.03648 92.317926 168.713563 C 90.896051 165.479188 90.448134 162.286479 90.974176 159.135437 C 91.521051 156.005229 92.661676 152.96877 94.385635 150.015645 C 96.135635 147.06252 98.172093 144.307311 100.489802 141.744811 C 102.828343 139.208353 105.083552 136.953144 107.250219 134.989602 C 107.510635 134.703144 108.177302 134.046894 109.250219 133.020852 C 110.323136 131.989602 111.479386 130.916686 112.729386 129.802102 C 113.995011 128.687519 115.146053 127.890644 116.172094 127.406269 C 117.203344 126.906269 117.760636 127.104185 117.843969 128.000019 C 118.021053 128.609394 117.682511 129.411477 116.828344 130.395852 C 116.000219 131.380227 115.396053 132.098977 115.026261 132.557311 C 113.427303 134.526061 111.953344 136.671894 110.593969 138.989603 C 107.291885 144.197936 104.646052 149.666687 102.656468 155.395854 C 102.041885 157.187521 101.442927 159.244812 100.849177 161.562521 C 100.281468 163.906271 100.349177 166.015646 101.047093 167.895855 C 101.593968 169.427105 102.448135 170.322938 103.604385 170.588563 C 104.765844 170.84898 105.968969 170.708355 107.21376 170.16148 C 108.484594 169.635438 109.567927 168.968771 110.463761 168.156271 C 112.343969 166.364605 113.953344 164.208354 115.286678 161.692729 C 116.640844 159.203146 117.901261 156.838562 119.06272 154.609395 C 126.146053 140.807311 132.302304 126.65106 137.531471 112.151059 C 142.781471 97.625017 147.870013 83.057307 152.78668 68.447931 C 150.010638 73.10939 147.213763 77.786474 144.390846 82.489599 C 141.567929 87.192724 138.593971 91.786475 135.463762 96.27085 C 134.021054 98.2396 132.557512 100.140642 131.067929 101.979184 C 129.604387 103.817725 128.015845 105.635434 126.31272 107.427101 C 125.698137 108.062517 125.073137 108.697934 124.442928 109.328142 C 123.807512 109.942726 123.229386 110.609393 122.703345 111.333351 C 122.416886 111.682309 122.078345 112.239601 121.68772 113.005226 C 121.291886 113.770851 120.864803 114.151059 120.40647 114.151059 L 121.09397 113.067726 C 120.896053 113.333351 120.666886 113.583351 120.40647 113.822934 C 120.140845 114.041684 119.922095 114.239601 119.75022 114.416684 C 119.922095 114.416684 120.057511 114.458351 120.140845 114.546893 C 119.880428 115.791685 119.135636 116.864601 117.911678 117.760435 C 116.708553 118.656268 115.364803 119.291685 113.875219 119.666685 C 112.411677 120.015643 111.099177 120.05731 109.937719 119.796893 C 107.687719 119.250018 105.37001 118.125018 102.984593 116.416685 C 100.62001 114.708351 98.687718 113.015643 97.177301 111.333351 C 95.817926 109.713559 94.93251 107.963559 94.521051 106.083351 C 94.125218 104.197934 93.974176 102.229184 94.05751 100.1771 C 94.146051 99.890642 94.21376 99.104183 94.255426 97.812517 C 94.302301 96.52085 94.411676 95.276058 94.583551 94.072933 C 94.781468 92.848975 95.099176 92.234391 95.536676 92.234391 C 95.625218 92.234391 95.625218 92.510433 95.536676 93.057308 C 95.448135 93.58335 95.448135 93.885433 95.536676 93.973975 C 95.734593 92.9896 95.896051 92.0521 96.02626 91.151058 C 96.156468 90.255225 96.312718 89.359391 96.484593 88.463558 C 96.40126 88.552099 96.354385 88.645849 96.354385 88.755224 C 96.354385 88.843766 96.312718 88.890641 96.224176 88.890641 Z M 104.823135 66.708348 C 105.083552 65.989598 105.390844 65.244806 105.739802 64.479181 C 106.109594 63.713556 106.427302 62.979181 106.692927 62.281264 C 106.692927 62.281264 106.911677 61.875014 107.349177 61.067723 C 107.80751 60.255223 108.354386 59.296889 108.989802 58.177097 C 109.620011 57.041681 110.135636 56.078139 110.531469 55.291681 C 110.922094 54.484389 111.120011 54.078139 111.120011 54.078139 C 112.390844 50.66668 113.495011 47.932305 114.432511 45.875013 C 115.375219 43.817721 116.359594 41.869805 117.385636 40.036471 C 118.416886 38.197929 119.692928 35.843763 121.224178 32.979179 C 119.78147 35.671888 118.187719 38.385429 116.437719 41.119805 C 114.687719 43.828138 113.187719 46.531263 111.942927 49.223972 C 110.604386 52.286472 109.349177 55.203139 108.166886 57.984389 C 107.010635 60.760431 105.890844 63.666681 104.823135 66.708348 Z M 137.468971 135.510436 C 138.823138 132.557311 140.125221 129.630227 141.370013 126.718769 C 142.620013 123.80731 143.833555 120.86981 145.010638 117.890643 C 144.640846 118.614601 144.00543 119.697935 143.109596 121.140643 C 142.213763 122.562518 141.635638 123.635435 141.370013 124.354185 C 140.474179 126.58856 139.838763 128.468769 139.468971 130.000019 C 139.120013 131.531269 138.453346 133.369811 137.468971 135.510436 Z M 176.442932 44.531263 L 176.442932 44.401055 L 176.312723 44.401055 Z M 274.828355 31.635429 C 274.916896 32.442721 274.557521 33.046887 273.75023 33.437512 C 272.93773 33.833346 272.041896 34.130221 271.057521 34.328137 C 270.073146 34.500013 269.307521 34.630221 268.760646 34.718763 C 267.604396 34.984388 266.276271 35.114596 264.791896 35.114596 C 263.323146 35.114596 262.010646 35.343763 260.854396 35.802096 C 260.745021 35.802096 260.604396 35.932304 260.427312 36.197929 C 260.250229 36.458346 260.078354 36.635429 259.90127 36.718763 C 259.640854 36.807304 259.343979 36.906263 259.015854 37.015638 C 258.708562 37.104179 258.427312 37.192721 258.161687 37.281263 C 257.265854 37.453138 256.390854 37.609388 255.536687 37.739596 C 254.687728 37.869804 253.854395 38.020846 253.047103 38.197929 L 243.364811 39.838555 C 242.208561 39.927096 240.838769 39.968763 239.265852 39.968763 C 237.687727 39.968763 236.593977 40.593763 235.984602 41.838555 C 235.896061 42.10418 235.854394 42.41668 235.854394 42.79168 C 235.854394 43.140638 235.807519 43.489596 235.718977 43.838555 C 235.437727 44.651055 235.062727 45.437513 234.604394 46.203138 C 234.166894 46.968763 233.729394 47.713555 233.291894 48.432305 L 228.17731 58.640639 C 226.92731 60.979181 225.812727 63.406264 224.828352 65.92189 C 223.843976 68.416681 222.817935 70.864598 221.745018 73.270848 C 221.109601 74.713557 220.453351 76.135432 219.776268 77.536474 C 219.099184 78.916682 218.541893 80.369807 218.104393 81.901057 C 217.838768 83.057307 217.567934 84.197932 217.281476 85.312516 C 217.021059 86.427099 216.672101 87.619808 216.234601 88.890641 C 213.979392 94.250016 211.640851 99.593767 209.208559 104.932309 C 206.802309 110.270851 204.573142 115.718768 202.51585 121.270852 C 201.7971 123.239602 200.854392 125.572935 199.698142 128.260435 C 198.536683 130.953144 197.1721 133.588561 195.593975 136.166686 C 194.021058 138.770853 192.161683 140.880228 190.015849 142.50002 C 187.875224 144.119811 185.458557 144.786478 182.765849 144.50002 C 179.724182 144.239603 177.01064 143.166686 174.630432 141.286478 C 172.245015 139.406269 170.343973 137.119811 168.922098 134.427102 C 167.849181 132.375019 166.927306 129.958352 166.161681 127.177102 C 165.396056 124.40106 164.974181 121.895852 164.885639 119.666685 C 164.885639 119.203143 164.885639 118.645851 164.885639 117.989601 C 164.885639 117.312518 165.057514 116.786476 165.411681 116.416685 C 166.307514 115.432309 167.224181 115.453143 168.166889 116.484393 C 169.10439 117.510435 169.807515 118.385435 170.265848 119.109393 C 171.88564 121.359393 173.489806 123.765643 175.088765 126.322935 C 176.708557 128.864602 178.630432 131.026061 180.864807 132.822936 C 181.958557 133.630227 182.745015 134.036477 183.224182 134.036477 C 183.72939 134.036477 184.375224 133.500019 185.161682 132.427102 C 186.864807 130.36981 188.302307 128.000019 189.458558 125.30731 C 190.640849 122.61981 191.635641 120.015643 192.442933 117.500018 C 194.500225 111.223976 196.708558 105.000017 199.073141 98.828142 C 201.458558 92.640641 203.864808 86.447933 206.291892 80.260432 C 208.6096 74.093765 210.948142 67.92189 213.312726 61.755223 C 215.698143 55.562514 218.364809 49.463555 221.317935 43.44793 C 220.156476 43.619805 219.021059 43.786471 217.906476 43.937513 C 216.791893 44.07293 215.640851 44.223971 214.458559 44.401055 C 213.562726 44.484388 212.776267 44.692722 212.099184 45.020847 C 211.442934 45.328138 210.666892 45.567722 209.771059 45.744805 C 208.349184 46.093763 206.89085 46.333347 205.406475 46.463555 C 203.916892 46.598972 202.416892 46.76043 200.911683 46.958347 C 199.20335 47.130222 197.521058 47.265638 195.8596 47.348972 C 194.192933 47.437513 192.521058 47.265638 190.838766 46.828138 C 189.745016 46.453138 188.593974 45.796888 187.390849 44.859388 C 186.187724 43.91668 185.442932 42.890638 185.161682 41.776055 C 184.896057 40.656263 185.531474 39.69793 187.062724 38.885429 C 187.786682 38.427096 188.661682 38.130221 189.687724 38.000013 C 190.718974 37.869804 191.536683 37.760429 192.151266 37.671888 C 195.385641 37.125013 198.588766 36.588554 201.760642 36.062513 C 204.958559 35.515638 208.161684 35.156263 211.375226 34.984388 C 212.734601 34.807304 214.010642 34.656263 215.213768 34.520846 C 216.416893 34.390638 217.656476 34.182304 218.922101 33.901054 C 220.255435 33.463554 221.588768 33.197929 222.92731 33.109387 C 223.557518 33.026054 224.349185 33.000012 225.286685 33.046887 C 226.229393 33.088554 226.974185 32.927096 227.52106 32.552096 C 228.416893 32.031262 228.974185 31.317721 229.192935 30.421887 C 229.411685 29.526054 229.750227 28.802095 230.20856 28.25522 C 231.104394 27.270845 232.375227 26.75522 234.015852 26.713554 C 235.677311 26.671887 237.088769 26.833345 238.250227 27.208345 C 239.515852 27.557304 240.390853 28.026054 240.870019 28.614595 C 241.375228 29.187512 242.031478 29.833346 242.838769 30.552096 C 243.276269 30.901054 243.364811 31.098971 243.104394 31.145846 C 242.838769 31.187512 243.015853 31.307304 243.630436 31.505221 C 244.088769 31.593762 244.536686 31.593762 244.974186 31.505221 C 245.43252 31.416679 245.83877 31.317721 246.187728 31.208346 C 246.99502 31.208346 247.80752 31.187512 248.614811 31.145846 C 249.427311 31.098971 250.234603 31.036471 251.041895 30.947929 C 254.260645 30.770846 257.474187 30.682304 260.687729 30.682304 C 263.927312 30.682304 267.151271 30.770846 270.370021 30.947929 C 270.739813 31.036471 271.099188 31.098971 271.453355 31.145846 C 271.823146 31.187512 272.182521 31.208346 272.536688 31.208346 C 272.708563 31.119804 272.838771 30.947929 272.927313 30.682304 C 273.015855 30.421887 273.245021 30.333346 273.614813 30.421887 C 274.317938 30.510429 274.71898 30.911471 274.828355 31.635429 Z M 223.61481 62.807306 C 225.234602 59.677097 226.729393 56.427097 228.109602 53.062514 C 229.510643 49.692722 231.05231 46.489597 232.734602 43.44793 C 231.312727 45.69793 229.640852 48.281263 227.713768 51.192722 C 225.791893 54.098972 224.338768 56.755222 223.354393 59.161472 C 222.718976 60.520848 221.932518 62.411473 220.98981 64.838556 C 220.047101 67.244806 219.041893 69.85939 217.968976 72.682307 C 216.901268 75.500015 215.890851 78.213557 214.953351 80.817724 C 214.010642 83.421891 213.182517 85.562516 212.458559 87.250016 C 213.093976 85.828141 213.922101 83.932307 214.953351 81.572932 C 215.979393 79.187515 217.073143 76.739599 218.234601 74.223973 C 219.390851 71.708348 220.442935 69.401056 221.385643 67.302098 C 222.323143 65.197931 223.067935 63.703139 223.61481 62.807306 Z M 223.61481 62.807306 " stroke="#1a202c" stroke-width="10.0794" stroke-opacity="1" stroke-miterlimit="4"/><g fill="#fffef9" fill-opacity="1"><g transform="translate(137.456868, 214.499986)"><g><path d="M 4.03125 -30.84375 L 4.328125 -31.546875 L 4.328125 -31.453125 C 4.671875 -32.117188 4.875 -32.972656 4.9375 -34.015625 C 5.007812 -35.054688 5.109375 -35.914062 5.234375 -36.59375 C 5.640625 -38.207031 6.0625 -39.816406 6.5 -41.421875 C 6.9375 -43.035156 7.425781 -44.617188 7.96875 -46.171875 C 8.96875 -49.054688 10.019531 -51.957031 11.125 -54.875 C 12.238281 -57.800781 13.46875 -60.609375 14.8125 -63.296875 C 15.15625 -63.972656 15.5625 -64.5625 16.03125 -65.0625 C 16.5 -65.570312 16.9375 -66.128906 17.34375 -66.734375 C 17.738281 -67.265625 18.070312 -67.882812 18.34375 -68.59375 C 18.613281 -69.300781 18.882812 -69.988281 19.15625 -70.65625 C 19.625 -71.664062 20.207031 -72.890625 20.90625 -74.328125 C 21.613281 -75.773438 22.507812 -76.703125 23.59375 -77.109375 C 24.800781 -77.648438 26.007812 -77.515625 27.21875 -76.703125 C 28.425781 -75.898438 29.363281 -75.023438 30.03125 -74.078125 C 30.707031 -73.003906 31.046875 -72.0625 31.046875 -71.25 C 31.046875 -70.445312 30.742188 -69.578125 30.140625 -68.640625 C 30.472656 -68.972656 30.640625 -69.070312 30.640625 -68.9375 C 30.640625 -68.675781 30.351562 -68.054688 29.78125 -67.078125 C 29.207031 -66.109375 28.617188 -65.203125 28.015625 -64.359375 C 27.410156 -63.515625 27.007812 -63.128906 26.8125 -63.203125 C 26.8125 -63.203125 27.007812 -63.617188 27.40625 -64.453125 C 27.8125 -65.296875 28.050781 -65.785156 28.125 -65.921875 C 27.1875 -64.378906 26.257812 -62.816406 25.34375 -61.234375 C 24.4375 -59.648438 23.613281 -58.019531 22.875 -56.34375 C 23.082031 -56.613281 23.253906 -56.78125 23.390625 -56.84375 C 23.253906 -56.78125 22.96875 -56.226562 22.53125 -55.1875 C 22.09375 -54.144531 21.640625 -52.96875 21.171875 -51.65625 C 20.703125 -50.34375 20.265625 -49.148438 19.859375 -48.078125 C 19.453125 -47.003906 19.21875 -46.367188 19.15625 -46.171875 C 17.539062 -42.003906 16.160156 -37.75 15.015625 -33.40625 C 13.878906 -29.070312 13.039062 -24.65625 12.5 -20.15625 C 12.425781 -19.550781 12.359375 -18.742188 12.296875 -17.734375 C 12.234375 -16.734375 12.367188 -15.894531 12.703125 -15.21875 C 13.035156 -14.550781 13.738281 -14.347656 14.8125 -14.609375 C 15.957031 -14.953125 17.03125 -15.707031 18.03125 -16.875 C 19.039062 -18.050781 19.914062 -19.078125 20.65625 -19.953125 C 23.28125 -23.046875 25.921875 -26.140625 28.578125 -29.234375 C 31.234375 -32.328125 33.703125 -35.519531 35.984375 -38.8125 C 35.921875 -38.738281 35.671875 -38.46875 35.234375 -38 C 34.796875 -37.53125 34.578125 -37.328125 34.578125 -37.390625 C 34.367188 -37.929688 34.582031 -38.601562 35.21875 -39.40625 C 35.863281 -40.21875 36.320312 -40.789062 36.59375 -41.125 C 37.257812 -41.925781 37.878906 -42.75 38.453125 -43.59375 C 39.023438 -44.4375 39.578125 -45.296875 40.109375 -46.171875 L 49.296875 -60.578125 C 50.035156 -61.648438 50.753906 -62.722656 51.453125 -63.796875 C 52.160156 -64.878906 52.816406 -65.957031 53.421875 -67.03125 C 53.890625 -67.832031 54.328125 -68.519531 54.734375 -69.09375 C 55.140625 -69.664062 55.878906 -69.953125 56.953125 -69.953125 C 58.222656 -69.953125 59.5625 -69.414062 60.96875 -68.34375 C 62.382812 -67.269531 63.363281 -66.09375 63.90625 -64.8125 C 63.90625 -64.8125 63.90625 -64.796875 63.90625 -64.765625 C 63.90625 -64.734375 63.9375 -64.679688 64 -64.609375 C 64 -64.472656 64.035156 -64.40625 64.109375 -64.40625 L 64 -64.40625 C 64.070312 -64.34375 64.109375 -64.289062 64.109375 -64.25 C 64.109375 -64.21875 64.109375 -64.203125 64.109375 -64.203125 L 64.203125 -64.109375 C 64.546875 -62.628906 64.363281 -61.113281 63.65625 -59.5625 C 62.945312 -58.019531 62.117188 -56.492188 61.171875 -54.984375 C 60.234375 -53.472656 59.53125 -52.046875 59.0625 -50.703125 C 58.59375 -49.222656 58.171875 -47.773438 57.796875 -46.359375 C 57.429688 -44.953125 56.984375 -43.546875 56.453125 -42.140625 C 55.773438 -40.585938 55.132812 -39.003906 54.53125 -37.390625 C 53.925781 -35.773438 53.285156 -34.164062 52.609375 -32.5625 L 44.953125 -13.5 C 43.742188 -10.613281 42.617188 -7.675781 41.578125 -4.6875 C 40.535156 -1.695312 39.34375 1.238281 38 4.125 C 35.71875 9.238281 33.265625 14.429688 30.640625 19.703125 C 28.023438 24.984375 24.9375 29.804688 21.375 34.171875 C 19.957031 35.921875 18.273438 36.976562 16.328125 37.34375 C 14.378906 37.71875 12.378906 37.566406 10.328125 36.890625 C 8.273438 36.222656 6.425781 35.179688 4.78125 33.765625 C 3.132812 32.359375 1.910156 30.78125 1.109375 29.03125 C 0.0351562 26.613281 -0.300781 24.226562 0.09375 21.875 C 0.5 19.519531 1.359375 17.234375 2.671875 15.015625 C 3.984375 12.796875 5.507812 10.726562 7.25 8.8125 C 9 6.90625 10.679688 5.210938 12.296875 3.734375 C 12.492188 3.523438 12.992188 3.035156 13.796875 2.265625 C 14.609375 1.492188 15.484375 0.691406 16.421875 -0.140625 C 17.367188 -0.984375 18.226562 -1.585938 19 -1.953125 C 19.769531 -2.328125 20.191406 -2.179688 20.265625 -1.515625 C 20.398438 -1.046875 20.144531 -0.441406 19.5 0.296875 C 18.863281 1.035156 18.410156 1.578125 18.140625 1.921875 C 16.929688 3.390625 15.820312 5 14.8125 6.75 C 12.332031 10.644531 10.351562 14.742188 8.875 19.046875 C 8.40625 20.390625 7.953125 21.9375 7.515625 23.6875 C 7.078125 25.4375 7.125 27.015625 7.65625 28.421875 C 8.0625 29.566406 8.703125 30.238281 9.578125 30.4375 C 10.453125 30.644531 11.359375 30.546875 12.296875 30.140625 C 13.234375 29.734375 14.039062 29.226562 14.71875 28.625 C 16.125 27.28125 17.332031 25.664062 18.34375 23.78125 C 19.351562 21.90625 20.296875 20.128906 21.171875 18.453125 C 26.472656 8.097656 31.085938 -2.519531 35.015625 -13.40625 C 38.953125 -24.289062 42.769531 -35.210938 46.46875 -46.171875 C 44.382812 -42.671875 42.285156 -39.15625 40.171875 -35.625 C 38.054688 -32.101562 35.820312 -28.660156 33.46875 -25.296875 C 32.394531 -23.816406 31.300781 -22.390625 30.1875 -21.015625 C 29.082031 -19.640625 27.890625 -18.28125 26.609375 -16.9375 C 26.140625 -16.46875 25.671875 -15.992188 25.203125 -15.515625 C 24.734375 -15.046875 24.296875 -14.546875 23.890625 -14.015625 C 23.691406 -13.742188 23.4375 -13.320312 23.125 -12.75 C 22.820312 -12.175781 22.503906 -11.890625 22.171875 -11.890625 L 22.671875 -12.703125 C 22.546875 -12.492188 22.378906 -12.304688 22.171875 -12.140625 C 21.972656 -11.972656 21.804688 -11.820312 21.671875 -11.6875 C 21.804688 -11.6875 21.90625 -11.65625 21.96875 -11.59375 C 21.769531 -10.65625 21.21875 -9.847656 20.3125 -9.171875 C 19.40625 -8.503906 18.394531 -8.035156 17.28125 -7.765625 C 16.175781 -7.492188 15.1875 -7.457031 14.3125 -7.65625 C 12.632812 -8.0625 10.90625 -8.898438 9.125 -10.171875 C 7.34375 -11.453125 5.878906 -12.734375 4.734375 -14.015625 C 3.722656 -15.222656 3.066406 -16.53125 2.765625 -17.9375 C 2.460938 -19.351562 2.347656 -20.832031 2.421875 -22.375 C 2.484375 -22.570312 2.53125 -23.160156 2.5625 -24.140625 C 2.601562 -25.117188 2.691406 -26.0625 2.828125 -26.96875 C 2.960938 -27.875 3.195312 -28.328125 3.53125 -28.328125 C 3.59375 -28.328125 3.585938 -28.125 3.515625 -27.71875 C 3.453125 -27.3125 3.457031 -27.078125 3.53125 -27.015625 C 3.664062 -27.753906 3.78125 -28.457031 3.875 -29.125 C 3.976562 -29.800781 4.097656 -30.472656 4.234375 -31.140625 C 4.160156 -31.078125 4.125 -31.007812 4.125 -30.9375 C 4.125 -30.875 4.09375 -30.84375 4.03125 -30.84375 Z M 10.484375 -47.46875 C 10.679688 -48.007812 10.914062 -48.566406 11.1875 -49.140625 C 11.457031 -49.710938 11.691406 -50.265625 11.890625 -50.796875 C 11.890625 -50.796875 12.054688 -51.097656 12.390625 -51.703125 C 12.734375 -52.304688 13.140625 -53.03125 13.609375 -53.875 C 14.078125 -54.71875 14.460938 -55.441406 14.765625 -56.046875 C 15.066406 -56.648438 15.21875 -56.953125 15.21875 -56.953125 C 16.15625 -59.503906 16.976562 -61.550781 17.6875 -63.09375 C 18.394531 -64.644531 19.132812 -66.109375 19.90625 -67.484375 C 20.675781 -68.859375 21.632812 -70.625 22.78125 -72.78125 C 21.707031 -70.757812 20.515625 -68.722656 19.203125 -66.671875 C 17.890625 -64.628906 16.765625 -62.597656 15.828125 -60.578125 C 14.816406 -58.296875 13.875 -56.113281 13 -54.03125 C 12.125 -51.945312 11.285156 -49.757812 10.484375 -47.46875 Z M 34.96875 4.125 C 35.976562 1.914062 36.953125 -0.28125 37.890625 -2.46875 C 38.835938 -4.65625 39.75 -6.859375 40.625 -9.078125 C 40.351562 -8.535156 39.878906 -7.726562 39.203125 -6.65625 C 38.535156 -5.582031 38.101562 -4.773438 37.90625 -4.234375 C 37.226562 -2.554688 36.753906 -1.144531 36.484375 0 C 36.210938 1.144531 35.707031 2.519531 34.96875 4.125 Z M 64.203125 -64.109375 L 64.203125 -64.203125 L 64.109375 -64.203125 Z M 64.203125 -64.109375 "/></g></g></g><g fill="#fffef9" fill-opacity="1"><g transform="translate(192.987374, 214.499986)"><g><path d="M 82.453125 -73.78125 C 82.515625 -73.175781 82.242188 -72.722656 81.640625 -72.421875 C 81.035156 -72.117188 80.363281 -71.898438 79.625 -71.765625 C 78.882812 -71.628906 78.316406 -71.53125 77.921875 -71.46875 C 77.046875 -71.257812 76.050781 -71.15625 74.9375 -71.15625 C 73.832031 -71.15625 72.84375 -70.988281 71.96875 -70.65625 C 71.90625 -70.65625 71.804688 -70.550781 71.671875 -70.34375 C 71.535156 -70.144531 71.398438 -70.015625 71.265625 -69.953125 C 71.066406 -69.890625 70.847656 -69.820312 70.609375 -69.75 C 70.367188 -69.6875 70.148438 -69.617188 69.953125 -69.546875 C 69.273438 -69.410156 68.617188 -69.289062 67.984375 -69.1875 C 67.347656 -69.09375 66.726562 -68.976562 66.125 -68.84375 L 58.859375 -67.640625 C 57.992188 -67.566406 56.972656 -67.53125 55.796875 -67.53125 C 54.617188 -67.53125 53.796875 -67.0625 53.328125 -66.125 C 53.253906 -65.925781 53.21875 -65.691406 53.21875 -65.421875 C 53.21875 -65.148438 53.1875 -64.878906 53.125 -64.609375 C 52.914062 -64.003906 52.644531 -63.414062 52.3125 -62.84375 C 51.976562 -62.269531 51.644531 -61.71875 51.3125 -61.1875 L 47.46875 -53.515625 C 46.53125 -51.773438 45.691406 -49.960938 44.953125 -48.078125 C 44.210938 -46.203125 43.441406 -44.351562 42.640625 -42.53125 C 42.171875 -41.457031 41.679688 -40.398438 41.171875 -39.359375 C 40.671875 -38.316406 40.253906 -37.222656 39.921875 -36.078125 C 39.710938 -35.210938 39.507812 -34.359375 39.3125 -33.515625 C 39.113281 -32.671875 38.84375 -31.78125 38.5 -30.84375 C 36.820312 -26.8125 35.078125 -22.796875 33.265625 -18.796875 C 31.453125 -14.796875 29.769531 -10.710938 28.21875 -6.546875 C 27.6875 -5.066406 26.984375 -3.316406 26.109375 -1.296875 C 25.234375 0.710938 24.207031 2.691406 23.03125 4.640625 C 21.851562 6.585938 20.457031 8.164062 18.84375 9.375 C 17.238281 10.582031 15.425781 11.085938 13.40625 10.890625 C 11.125 10.679688 9.09375 9.867188 7.3125 8.453125 C 5.53125 7.046875 4.101562 5.335938 3.03125 3.328125 C 2.21875 1.785156 1.523438 -0.0234375 0.953125 -2.109375 C 0.378906 -4.191406 0.0625 -6.078125 0 -7.765625 C 0 -8.097656 0 -8.515625 0 -9.015625 C 0 -9.523438 0.132812 -9.914062 0.40625 -10.1875 C 1.070312 -10.925781 1.757812 -10.90625 2.46875 -10.125 C 3.175781 -9.351562 3.695312 -8.703125 4.03125 -8.171875 C 5.238281 -6.484375 6.445312 -4.679688 7.65625 -2.765625 C 8.863281 -0.859375 10.3125 0.765625 12 2.109375 C 12.800781 2.722656 13.382812 3.03125 13.75 3.03125 C 14.125 3.03125 14.613281 2.625 15.21875 1.8125 C 16.5 0.269531 17.570312 -1.503906 18.4375 -3.515625 C 19.3125 -5.535156 20.050781 -7.488281 20.65625 -9.375 C 22.207031 -14.082031 23.875 -18.753906 25.65625 -23.390625 C 27.4375 -28.023438 29.234375 -32.660156 31.046875 -37.296875 C 32.796875 -41.929688 34.5625 -46.566406 36.34375 -51.203125 C 38.125 -55.835938 40.117188 -60.40625 42.328125 -64.90625 C 41.460938 -64.78125 40.609375 -64.664062 39.765625 -64.5625 C 38.921875 -64.457031 38.0625 -64.335938 37.1875 -64.203125 C 36.519531 -64.140625 35.929688 -63.988281 35.421875 -63.75 C 34.921875 -63.519531 34.335938 -63.335938 33.671875 -63.203125 C 32.585938 -62.929688 31.492188 -62.742188 30.390625 -62.640625 C 29.285156 -62.546875 28.160156 -62.429688 27.015625 -62.296875 C 25.734375 -62.160156 24.472656 -62.054688 23.234375 -61.984375 C 21.992188 -61.921875 20.734375 -62.054688 19.453125 -62.390625 C 18.648438 -62.660156 17.789062 -63.144531 16.875 -63.84375 C 15.96875 -64.550781 15.414062 -65.328125 15.21875 -66.171875 C 15.019531 -67.015625 15.488281 -67.738281 16.625 -68.34375 C 17.164062 -68.675781 17.820312 -68.890625 18.59375 -68.984375 C 19.363281 -69.085938 19.988281 -69.175781 20.46875 -69.25 C 22.882812 -69.65625 25.285156 -70.054688 27.671875 -70.453125 C 30.054688 -70.859375 32.457031 -71.128906 34.875 -71.265625 C 35.882812 -71.398438 36.84375 -71.515625 37.75 -71.609375 C 38.65625 -71.710938 39.578125 -71.863281 40.515625 -72.0625 C 41.523438 -72.40625 42.535156 -72.609375 43.546875 -72.671875 C 44.015625 -72.742188 44.597656 -72.757812 45.296875 -72.71875 C 46.003906 -72.6875 46.5625 -72.804688 46.96875 -73.078125 C 47.644531 -73.484375 48.066406 -74.019531 48.234375 -74.6875 C 48.398438 -75.363281 48.648438 -75.898438 48.984375 -76.296875 C 49.660156 -77.035156 50.617188 -77.421875 51.859375 -77.453125 C 53.097656 -77.492188 54.15625 -77.378906 55.03125 -77.109375 C 55.976562 -76.835938 56.632812 -76.484375 57 -76.046875 C 57.375 -75.609375 57.863281 -75.125 58.46875 -74.59375 C 58.800781 -74.320312 58.863281 -74.164062 58.65625 -74.125 C 58.457031 -74.09375 58.59375 -74.015625 59.0625 -73.890625 C 59.40625 -73.816406 59.742188 -73.8125 60.078125 -73.875 C 60.410156 -73.945312 60.710938 -74.015625 60.984375 -74.078125 C 61.585938 -74.078125 62.191406 -74.09375 62.796875 -74.125 C 63.398438 -74.164062 64.003906 -74.21875 64.609375 -74.28125 C 67.023438 -74.414062 69.441406 -74.484375 71.859375 -74.484375 C 74.285156 -74.484375 76.707031 -74.414062 79.125 -74.28125 C 79.394531 -74.21875 79.660156 -74.164062 79.921875 -74.125 C 80.191406 -74.09375 80.460938 -74.078125 80.734375 -74.078125 C 80.867188 -74.148438 80.96875 -74.285156 81.03125 -74.484375 C 81.101562 -74.691406 81.273438 -74.757812 81.546875 -74.6875 C 82.078125 -74.625 82.378906 -74.320312 82.453125 -73.78125 Z M 44.046875 -50.40625 C 45.253906 -52.75 46.378906 -55.179688 47.421875 -57.703125 C 48.460938 -60.222656 49.625 -62.625 50.90625 -64.90625 C 49.832031 -63.226562 48.570312 -61.296875 47.125 -59.109375 C 45.675781 -56.929688 44.582031 -54.9375 43.84375 -53.125 C 43.375 -52.113281 42.785156 -50.703125 42.078125 -48.890625 C 41.378906 -47.078125 40.625 -45.109375 39.8125 -42.984375 C 39.007812 -40.867188 38.253906 -38.835938 37.546875 -36.890625 C 36.835938 -34.941406 36.21875 -33.328125 35.6875 -32.046875 C 36.15625 -33.128906 36.773438 -34.5625 37.546875 -36.34375 C 38.316406 -38.125 39.140625 -39.953125 40.015625 -41.828125 C 40.890625 -43.710938 41.675781 -45.441406 42.375 -47.015625 C 43.082031 -48.597656 43.640625 -49.726562 44.046875 -50.40625 Z M 44.046875 -50.40625 "/></g></g></g><path fill="#1a202c" d="M 278.296875 226.914062 C 277.28125 229.105469 276.191406 231.261719 275.027344 233.375 C 273.859375 235.492188 272.621094 237.5625 271.304688 239.589844 C 269.992188 241.617188 268.609375 243.597656 267.15625 245.527344 C 265.703125 247.453125 264.179688 249.328125 262.59375 251.152344 C 261.007812 252.972656 259.355469 254.734375 257.644531 256.4375 C 255.933594 258.140625 254.160156 259.78125 252.332031 261.359375 C 250.503906 262.9375 248.621094 264.449219 246.683594 265.894531 C 244.75 267.335938 242.761719 268.710938 240.730469 270.015625 C 238.695312 271.316406 236.617188 272.546875 234.496094 273.703125 C 232.375 274.859375 230.214844 275.9375 228.019531 276.941406 C 225.820312 277.941406 223.589844 278.863281 221.324219 279.707031 C 219.0625 280.550781 216.773438 281.3125 214.453125 281.996094 C 212.136719 282.675781 209.796875 283.273438 207.4375 283.789062 C 205.078125 284.304688 202.703125 284.734375 200.3125 285.078125 C 197.921875 285.425781 195.519531 285.6875 193.113281 285.863281 C 190.703125 286.039062 188.289062 286.128906 185.875 286.132812 C 183.457031 286.136719 181.046875 286.054688 178.636719 285.886719 C 176.226562 285.71875 173.824219 285.464844 171.433594 285.128906 C 169.042969 284.789062 166.664062 284.367188 164.304688 283.863281 C 161.941406 283.355469 159.601562 282.765625 157.28125 282.09375 C 154.960938 281.417969 152.667969 280.664062 150.402344 279.828125 C 148.132812 278.992188 145.902344 278.078125 143.699219 277.082031 C 141.5 276.085938 139.335938 275.015625 137.210938 273.867188 C 135.085938 272.71875 133.003906 271.496094 130.964844 270.199219 C 128.925781 268.90625 126.9375 267.539062 124.996094 266.101562 C 123.054688 264.660156 121.167969 263.15625 119.332031 261.585938 C 117.496094 260.015625 115.722656 258.378906 114.003906 256.679688 C 112.285156 254.984375 110.628906 253.226562 109.035156 251.410156 C 107.441406 249.59375 105.917969 247.726562 104.457031 245.800781 C 102.996094 243.875 101.605469 241.902344 100.285156 239.878906 C 98.964844 237.859375 97.71875 235.789062 96.542969 233.679688 C 95.371094 231.566406 94.273438 229.417969 93.253906 227.226562 L 113.859375 217.621094 C 114.65625 219.324219 115.507812 220.992188 116.417969 222.632812 C 117.332031 224.273438 118.300781 225.882812 119.324219 227.453125 C 120.351562 229.023438 121.433594 230.558594 122.566406 232.054688 C 123.703125 233.550781 124.886719 235.003906 126.125 236.414062 C 127.363281 237.824219 128.652344 239.1875 129.984375 240.507812 C 131.320312 241.828125 132.703125 243.097656 134.125 244.320312 C 135.550781 245.542969 137.019531 246.710938 138.527344 247.828125 C 140.035156 248.945312 141.582031 250.007812 143.167969 251.015625 C 144.75 252.023438 146.367188 252.972656 148.019531 253.863281 C 149.671875 254.757812 151.351562 255.589844 153.0625 256.363281 C 154.773438 257.136719 156.507812 257.847656 158.269531 258.496094 C 160.03125 259.144531 161.8125 259.730469 163.617188 260.253906 C 165.417969 260.777344 167.238281 261.238281 169.074219 261.628906 C 170.910156 262.023438 172.753906 262.351562 174.613281 262.613281 C 176.472656 262.878906 178.339844 263.074219 180.210938 263.203125 C 182.082031 263.332031 183.957031 263.398438 185.835938 263.394531 C 187.710938 263.390625 189.585938 263.320312 191.460938 263.183594 C 193.332031 263.046875 195.195312 262.847656 197.054688 262.578125 C 198.914062 262.308594 200.757812 261.972656 202.59375 261.574219 C 204.425781 261.171875 206.242188 260.710938 208.042969 260.179688 C 209.84375 259.652344 211.625 259.058594 213.382812 258.402344 C 215.144531 257.746094 216.875 257.03125 218.585938 256.25 C 220.292969 255.472656 221.972656 254.632812 223.621094 253.734375 C 225.269531 252.839844 226.882812 251.882812 228.460938 250.871094 C 230.042969 249.859375 231.585938 248.789062 233.089844 247.667969 C 234.59375 246.546875 236.058594 245.371094 237.480469 244.144531 C 238.902344 242.917969 240.277344 241.644531 241.605469 240.320312 C 242.9375 238.996094 244.21875 237.625 245.453125 236.210938 C 246.6875 234.796875 247.867188 233.339844 249 231.839844 C 250.128906 230.339844 251.203125 228.804688 252.222656 227.226562 C 253.246094 225.652344 254.207031 224.042969 255.113281 222.398438 C 256.019531 220.753906 256.867188 219.082031 257.65625 217.378906 Z M 278.296875 226.914062 " fill-opacity="1" fill-rule="nonzero"/><g fill="#fffef9" fill-opacity="1"><g transform="translate(100.26661, 228.622939)"><g><path d="M 6.078125 7.53125 L 4.90625 8.234375 L 0.59375 1 L 10.390625 -4.84375 L 14.640625 2.296875 L 13.46875 3.015625 L 10.015625 -2.796875 L 7.140625 -1.09375 L 10.328125 4.25 L 9.15625 4.953125 L 5.96875 -0.390625 L 2.5625 1.625 Z M 6.078125 7.53125 "/></g></g></g><g fill="#fffef9" fill-opacity="1"><g transform="translate(114.190279, 248.563551)"><g><path d="M 8.578125 0.265625 L 7.296875 7.21875 L 5.953125 5.890625 L 7.0625 0.40625 L 1.53125 1.515625 L 0.21875 0.203125 L 7.203125 -1.09375 L 8.40625 -7.71875 L 9.78125 -6.359375 L 8.765625 -1.21875 L 13.890625 -2.296875 L 15.1875 -1.015625 Z M 8.578125 0.265625 "/></g></g></g><g fill="#fffef9" fill-opacity="1"><g transform="translate(132.81861, 264.45037)"><g><path d="M 9.921875 -5.8125 L 4.859375 2.84375 L 3.515625 2.0625 L 8.578125 -6.59375 L 5.25 -8.546875 L 5.953125 -9.734375 L 13.953125 -5.046875 L 13.25 -3.859375 Z M 9.921875 -5.8125 "/></g></g></g><g fill="#fffef9" fill-opacity="1"><g transform="translate(154.013524, 274.910944)"><g><path d="M 3.921875 -3.96875 L 2.59375 0.734375 L 1.109375 0.3125 L 4.21875 -10.65625 L 9.296875 -9.21875 C 9.742188 -9.09375 10.171875 -8.925781 10.578125 -8.71875 C 10.984375 -8.507812 11.320312 -8.242188 11.59375 -7.921875 C 11.863281 -7.597656 12.046875 -7.21875 12.140625 -6.78125 C 12.242188 -6.34375 12.210938 -5.835938 12.046875 -5.265625 C 11.898438 -4.722656 11.703125 -4.300781 11.453125 -4 C 11.203125 -3.707031 10.925781 -3.492188 10.625 -3.359375 C 10.332031 -3.234375 10.054688 -3.128906 9.796875 -3.046875 C 9.890625 -2.941406 10.003906 -2.820312 10.140625 -2.6875 C 10.273438 -2.5625 10.394531 -2.410156 10.5 -2.234375 C 10.613281 -2.066406 10.679688 -1.847656 10.703125 -1.578125 C 10.722656 -1.316406 10.675781 -1 10.5625 -0.625 L 10 1.375 C 9.914062 1.675781 9.894531 1.910156 9.9375 2.078125 C 9.976562 2.253906 10.09375 2.441406 10.28125 2.640625 L 10.203125 2.890625 L 8.40625 2.375 C 8.40625 2.195312 8.421875 1.96875 8.453125 1.6875 C 8.492188 1.414062 8.546875 1.132812 8.609375 0.84375 C 8.679688 0.550781 8.742188 0.285156 8.796875 0.046875 C 8.859375 -0.179688 8.90625 -0.347656 8.9375 -0.453125 C 9.019531 -0.753906 9.0625 -1.0625 9.0625 -1.375 C 9.0625 -1.695312 8.945312 -2 8.71875 -2.28125 C 8.5 -2.5625 8.097656 -2.785156 7.515625 -2.953125 Z M 5.328125 -8.96875 L 4.28125 -5.234375 L 7.71875 -4.265625 C 8.082031 -4.160156 8.445312 -4.101562 8.8125 -4.09375 C 9.1875 -4.082031 9.519531 -4.179688 9.8125 -4.390625 C 10.113281 -4.609375 10.34375 -4.988281 10.5 -5.53125 C 10.613281 -5.957031 10.640625 -6.3125 10.578125 -6.59375 C 10.515625 -6.875 10.394531 -7.101562 10.21875 -7.28125 C 10.050781 -7.457031 9.859375 -7.59375 9.640625 -7.6875 C 9.421875 -7.789062 9.21875 -7.867188 9.03125 -7.921875 Z M 5.328125 -8.96875 "/></g></g></g><g fill="#fffef9" fill-opacity="1"><g transform="translate(178.692032, 279.963126)"><g><path d="M 7.609375 -3.203125 L 3.0625 -3.28125 L 1.8125 0.03125 L 0.21875 0 L 4.6875 -11.328125 L 6.4375 -11.296875 L 10.359375 0.171875 L 8.6875 0.140625 Z M 3.546875 -4.609375 L 7.078125 -4.5625 L 5.484375 -9.609375 L 5.453125 -9.609375 Z M 3.546875 -4.609375 "/></g></g></g><g fill="#fffef9" fill-opacity="1"><g transform="translate(203.216489, 278.607743)"><g><path d="M 8.453125 -10.3125 L 7.015625 -9.953125 C 6.785156 -10.421875 6.515625 -10.773438 6.203125 -11.015625 C 5.898438 -11.265625 5.578125 -11.425781 5.234375 -11.5 C 4.898438 -11.582031 4.566406 -11.613281 4.234375 -11.59375 C 3.910156 -11.570312 3.617188 -11.53125 3.359375 -11.46875 C 2.703125 -11.300781 2.132812 -10.988281 1.65625 -10.53125 C 1.1875 -10.070312 0.867188 -9.472656 0.703125 -8.734375 C 0.546875 -8.003906 0.585938 -7.15625 0.828125 -6.1875 C 1.046875 -5.320312 1.351562 -4.570312 1.75 -3.9375 C 2.144531 -3.300781 2.660156 -2.84375 3.296875 -2.5625 C 3.929688 -2.289062 4.710938 -2.269531 5.640625 -2.5 C 5.878906 -2.550781 6.140625 -2.65625 6.421875 -2.8125 C 6.710938 -2.96875 6.984375 -3.191406 7.234375 -3.484375 C 7.492188 -3.773438 7.703125 -4.148438 7.859375 -4.609375 C 8.015625 -5.078125 8.066406 -5.644531 8.015625 -6.3125 L 9.46875 -6.671875 C 9.550781 -5.816406 9.503906 -5.078125 9.328125 -4.453125 C 9.160156 -3.835938 8.910156 -3.320312 8.578125 -2.90625 C 8.253906 -2.488281 7.90625 -2.15625 7.53125 -1.90625 C 7.15625 -1.664062 6.800781 -1.484375 6.46875 -1.359375 C 6.144531 -1.242188 5.898438 -1.164062 5.734375 -1.125 C 5.109375 -0.96875 4.46875 -0.921875 3.8125 -0.984375 C 3.164062 -1.046875 2.550781 -1.253906 1.96875 -1.609375 C 1.382812 -1.960938 0.859375 -2.472656 0.390625 -3.140625 C -0.0664062 -3.816406 -0.429688 -4.691406 -0.703125 -5.765625 C -0.984375 -6.898438 -1.023438 -7.953125 -0.828125 -8.921875 C -0.628906 -9.890625 -0.207031 -10.710938 0.4375 -11.390625 C 1.082031 -12.066406 1.941406 -12.539062 3.015625 -12.8125 C 3.960938 -13.039062 4.800781 -13.0625 5.53125 -12.875 C 6.269531 -12.6875 6.882812 -12.359375 7.375 -11.890625 C 7.863281 -11.429688 8.222656 -10.90625 8.453125 -10.3125 Z M 8.453125 -10.3125 "/></g></g></g><g fill="#fffef9" fill-opacity="1"><g transform="translate(227.34255, 270.664451)"><g><path d="M 0.140625 -11.5 L 4.9375 -2.6875 L 3.578125 -1.953125 L -1.21875 -10.765625 L -4.609375 -8.921875 L -5.265625 -10.125 L 2.875 -14.546875 L 3.53125 -13.34375 Z M 0.140625 -11.5 "/></g></g></g><g fill="#fffef9" fill-opacity="1"><g transform="translate(247.302659, 257.918975)"><g><path d="M 3.46875 -11.171875 C 2.84375 -11.816406 2.175781 -12.28125 1.46875 -12.5625 C 0.769531 -12.851562 0.0703125 -12.9375 -0.625 -12.8125 C -1.332031 -12.695312 -1.984375 -12.351562 -2.578125 -11.78125 C -3.171875 -11.21875 -3.550781 -10.59375 -3.71875 -9.90625 C -3.882812 -9.21875 -3.835938 -8.507812 -3.578125 -7.78125 C -3.328125 -7.0625 -2.894531 -6.378906 -2.28125 -5.734375 C -1.664062 -5.085938 -1.003906 -4.617188 -0.296875 -4.328125 C 0.410156 -4.035156 1.117188 -3.941406 1.828125 -4.046875 C 2.546875 -4.160156 3.203125 -4.5 3.796875 -5.0625 C 4.390625 -5.632812 4.765625 -6.269531 4.921875 -6.96875 C 5.078125 -7.664062 5.023438 -8.375 4.765625 -9.09375 C 4.515625 -9.820312 4.082031 -10.515625 3.46875 -11.171875 Z M 4.625 -12.265625 C 4.957031 -11.910156 5.273438 -11.492188 5.578125 -11.015625 C 5.878906 -10.535156 6.113281 -10.015625 6.28125 -9.453125 C 6.445312 -8.890625 6.523438 -8.304688 6.515625 -7.703125 C 6.515625 -7.109375 6.367188 -6.5 6.078125 -5.875 C 5.796875 -5.257812 5.347656 -4.660156 4.734375 -4.078125 C 4.117188 -3.503906 3.5 -3.085938 2.875 -2.828125 C 2.25 -2.578125 1.632812 -2.460938 1.03125 -2.484375 C 0.425781 -2.515625 -0.144531 -2.628906 -0.6875 -2.828125 C -1.238281 -3.023438 -1.742188 -3.285156 -2.203125 -3.609375 C -2.671875 -3.929688 -3.070312 -4.269531 -3.40625 -4.625 C -3.75 -4.976562 -4.066406 -5.394531 -4.359375 -5.875 C -4.660156 -6.351562 -4.894531 -6.867188 -5.0625 -7.421875 C -5.238281 -7.984375 -5.316406 -8.5625 -5.296875 -9.15625 C -5.285156 -9.757812 -5.140625 -10.367188 -4.859375 -10.984375 C -4.585938 -11.609375 -4.144531 -12.207031 -3.53125 -12.78125 C -2.914062 -13.363281 -2.289062 -13.78125 -1.65625 -14.03125 C -1.019531 -14.289062 -0.40625 -14.40625 0.1875 -14.375 C 0.78125 -14.351562 1.351562 -14.242188 1.90625 -14.046875 C 2.457031 -13.859375 2.960938 -13.601562 3.421875 -13.28125 C 3.878906 -12.957031 4.28125 -12.617188 4.625 -12.265625 Z M 4.625 -12.265625 "/></g></g></g><g fill="#fffef9" fill-opacity="1"><g transform="translate(265.116998, 238.278459)"><g><path d="M -2.796875 -4.828125 L 1.390625 -2.3125 L 0.59375 -0.984375 L -9.171875 -6.859375 L -6.453125 -11.375 C -6.210938 -11.78125 -5.9375 -12.148438 -5.625 -12.484375 C -5.3125 -12.816406 -4.960938 -13.078125 -4.578125 -13.265625 C -4.191406 -13.453125 -3.773438 -13.535156 -3.328125 -13.515625 C -2.878906 -13.492188 -2.40625 -13.328125 -1.90625 -13.015625 C -1.414062 -12.734375 -1.0625 -12.429688 -0.84375 -12.109375 C -0.632812 -11.785156 -0.503906 -11.460938 -0.453125 -11.140625 C -0.410156 -10.828125 -0.382812 -10.53125 -0.375 -10.25 C -0.238281 -10.320312 -0.09375 -10.398438 0.0625 -10.484375 C 0.226562 -10.578125 0.40625 -10.65625 0.59375 -10.71875 C 0.789062 -10.78125 1.019531 -10.785156 1.28125 -10.734375 C 1.539062 -10.679688 1.84375 -10.550781 2.1875 -10.34375 L 3.96875 -9.28125 C 4.226562 -9.113281 4.445312 -9.03125 4.625 -9.03125 C 4.800781 -9.03125 5.003906 -9.097656 5.234375 -9.234375 L 5.46875 -9.09375 L 4.5 -7.484375 C 4.320312 -7.535156 4.101562 -7.613281 3.84375 -7.71875 C 3.59375 -7.832031 3.332031 -7.953125 3.0625 -8.078125 C 2.800781 -8.210938 2.566406 -8.335938 2.359375 -8.453125 C 2.160156 -8.578125 2.015625 -8.664062 1.921875 -8.71875 C 1.660156 -8.882812 1.375 -9.007812 1.0625 -9.09375 C 0.75 -9.1875 0.425781 -9.160156 0.09375 -9.015625 C -0.238281 -8.878906 -0.5625 -8.546875 -0.875 -8.015625 Z M -7.25 -7.515625 L -3.921875 -5.515625 L -2.078125 -8.578125 C -1.890625 -8.890625 -1.742188 -9.222656 -1.640625 -9.578125 C -1.535156 -9.941406 -1.546875 -10.289062 -1.671875 -10.625 C -1.796875 -10.96875 -2.097656 -11.285156 -2.578125 -11.578125 C -2.953125 -11.804688 -3.285156 -11.925781 -3.578125 -11.9375 C -3.867188 -11.957031 -4.117188 -11.90625 -4.328125 -11.78125 C -4.546875 -11.65625 -4.734375 -11.5 -4.890625 -11.3125 C -5.046875 -11.132812 -5.171875 -10.96875 -5.265625 -10.8125 Z M -7.25 -7.515625 "/></g></g></g></svg>